<svg xmlns="http://www.w3.org/2000/svg" viewBox="0 0 64 80" x="0px" y="0px"><g data-name="26-location"><path d="M56,4a4,4,0,1,0,4,4A4.00427,4.00427,0,0,0,56,4Zm0,6a2,2,0,1,1,2-2A2.00229,2.00229,0,0,1,56,10Z"/><path d="M56,0a8.00917,8.00917,0,0,0-8,8c0,4.08691,6.46875,12.64551,7.206,13.6084a1.00065,1.00065,0,0,0,1.5879,0C57.53125,20.64551,64,12.08691,64,8A8.00917,8.00917,0,0,0,56,0Zm0,19.32617C53.80127,16.30176,50,10.5459,50,8A6,6,0,0,1,62,8C62,10.5459,58.19873,16.30176,56,19.32617Z"/><path d="M8,46a4,4,0,1,0,4,4A4.00427,4.00427,0,0,0,8,46Zm0,6a2,2,0,1,1,2-2A2.00229,2.00229,0,0,1,8,52Z"/><path d="M8,42a8.00917,8.00917,0,0,0-8,8c0,4.08691,6.46875,12.64551,7.20605,13.6084a1.00065,1.00065,0,0,0,1.5879,0C9.53125,62.64551,16,54.08691,16,50A8.00917,8.00917,0,0,0,8,42ZM8,61.32617C5.80127,58.30176,2,52.5459,2,50a6,6,0,0,1,12,0C14,52.5459,10.19873,58.30176,8,61.32617Z"/><path d="M32,15A17,17,0,1,0,49,32,17.019,17.019,0,0,0,32,15ZM45.25647,25H45a.99684.99684,0,0,0-.31641.05176l-2.17724.72558-.61182-1.22461a1.01268,1.01268,0,0,0-.1875-.25976l-2-2a.99846.99846,0,0,0-1.26172-.125l-1.91064,1.27344-.58594-1.75782a1.0251,1.0251,0,0,0-.0542-.13086l-1-2a.99776.99776,0,0,0-1.21094-.501L31.27,19.85547l-.9834-.98242,1.2323-1.8487C31.68005,17.01923,31.83765,17,32,17A15.00806,15.00806,0,0,1,45.25647,25Zm-26.49976-.02734L21,25.7207V27a1.0004,1.0004,0,0,0,.55273.89453l1.10547.55274-.40332.80761-1.70215.85059A.99972.99972,0,0,0,20.293,31.707L22,33.41406V34H21a.99985.99985,0,0,0-.89453.55273l-1,2a1.00048,1.00048,0,0,0,.0625,1.002l1.54541,2.31836-.87427.874a14.91135,14.91135,0,0,1-1.0824-15.77435ZM21.11926,42.2948,22.707,40.707a.99977.99977,0,0,0,.125-1.26172l-1.67822-2.51758L21.61816,36H23a.99974.99974,0,0,0,1-1V33a.99928.99928,0,0,0-.293-.707l-1.019-1.01856.75928-.37988a1.00112,1.00112,0,0,0,.44726-.44726l1-2a1,1,0,0,0-.44726-1.3418L23,26.38184V25a.9989.9989,0,0,0-.68359-.94824l-2.46112-.82038a15.01631,15.01631,0,0,1,9.06176-5.90966L28.168,18.44531a.99977.99977,0,0,0,.125,1.26172l2,2a.99672.99672,0,0,0,1.02344.24121l2.17724-.72558.58008,1.16113.97754,2.93262a.99941.99941,0,0,0,1.50342.51562l2.31787-1.54492,1.30566,1.30566.92725,1.8545a.9987.9987,0,0,0,1.21094.501L45.16211,27h.96283a14.62654,14.62654,0,0,1,.3739,8.77924L44.709,35.18262l-.81445-1.62989A.99985.99985,0,0,0,43,33H41.41406l-.707-.707a.98493.98493,0,0,0-.25976-.1875l-2-1a.99981.99981,0,0,0-1.1543.1875l-2,2A.99928.99928,0,0,0,35,34v2.46484L32.44531,38.168a.99995.99995,0,0,0,0,1.66406l2.41358,1.60938-.8291,3.3164a.9992.9992,0,0,0,.26318.94922l.93408.93408A14.8832,14.8832,0,0,1,21.11926,42.2948Zm16.27509,3.68549-1.28693-1.28693.86279-3.45117a1,1,0,0,0-.41552-1.07422L34.80273,39l1.752-1.168A1.00028,1.00028,0,0,0,37,37V34.41406l1.19727-1.19726,1.21044.60547.88526.88476A1.00012,1.00012,0,0,0,41,35h1.38184l.72363,1.44727a.99636.99636,0,0,0,.57812.501l2.19233.73078A15.06545,15.06545,0,0,1,37.39435,45.98029Z"/><rect x="31" y="11" width="2" height="2"/><rect x="31" y="7" width="2" height="2"/><rect x="35" y="7" width="2" height="2"/><rect x="39" y="7" width="2" height="2"/><rect x="43" y="7" width="2" height="2"/><rect x="31" y="51" width="2" height="2"/><rect x="31" y="55" width="2" height="2"/><rect x="27" y="55" width="2" height="2"/><rect x="23" y="55" width="2" height="2"/><rect x="19" y="55" width="2" height="2"/><path d="M7,8H8V9a1,1,0,0,0,2,0V8h1a1,1,0,0,0,0-2H10V5A1,1,0,0,0,8,5V6H7A1,1,0,0,0,7,8Z"/><path d="M55,54H54V53a1,1,0,0,0-2,0v1H51a1,1,0,0,0,0,2h1v1a1,1,0,0,0,2,0V56h1a1,1,0,0,0,0-2Z"/></g><text x="0" y="79" fill="#000000" font-size="5px" font-weight="bold" font-family="'Helvetica Neue', Helvetica, Arial-Unicode, Arial, Sans-serif">Created by tulpahn</text><text x="0" y="84" fill="#000000" font-size="5px" font-weight="bold" font-family="'Helvetica Neue', Helvetica, Arial-Unicode, Arial, Sans-serif">from the Noun Project</text></svg>