<svg xmlns="http://www.w3.org/2000/svg" xmlns:xlink="http://www.w3.org/1999/xlink" version="1.1" x="0px" y="0px" viewBox="0 0 128 160" style="enable-background:new 0 0 128 128;" xml:space="preserve"><g><path d="M112.984,53.924c-0.331-1.614-0.746-3.227-1.232-4.792c-0.479-1.543-1.045-3.089-1.682-4.596   c-0.629-1.486-1.337-2.957-2.106-4.372c-0.765-1.409-1.607-2.795-2.504-4.122c-0.893-1.322-1.861-2.617-2.878-3.849   c-1.013-1.228-2.099-2.423-3.227-3.551c-0.781-0.78-2.049-0.781-2.828,0c-0.781,0.781-0.781,2.048,0,2.829   c1.038,1.038,2.037,2.137,2.97,3.268c0.936,1.134,1.827,2.325,2.648,3.542c0.824,1.221,1.6,2.497,2.305,3.793   c0.706,1.3,1.358,2.653,1.936,4.019c0.586,1.386,1.105,2.807,1.547,4.226c0.447,1.439,0.829,2.922,1.133,4.406   c0.309,1.506,0.543,3.042,0.697,4.567c0.157,1.552,0.237,3.135,0.237,4.706c0,1.571-0.08,3.154-0.238,4.707   c-0.153,1.523-0.388,3.06-0.695,4.565c-0.305,1.485-0.687,2.968-1.135,4.409c-0.44,1.417-0.96,2.839-1.545,4.224   c-0.578,1.367-1.23,2.72-1.937,4.02c-0.703,1.294-1.479,2.57-2.305,3.793c-0.819,1.213-1.711,2.405-2.649,3.542   c-0.932,1.129-1.931,2.229-2.969,3.267c-1.039,1.039-2.139,2.038-3.269,2.97c-1.13,0.933-2.321,1.824-3.54,2.648   c-1.225,0.827-2.501,1.602-3.794,2.304c-1.303,0.708-2.655,1.359-4.021,1.937c-1.375,0.582-2.796,1.102-4.224,1.546   c-1.444,0.449-2.928,0.831-4.408,1.133c-1.499,0.307-3.036,0.542-4.565,0.697c-3.11,0.314-6.308,0.314-9.412,0   c-1.531-0.156-3.068-0.39-4.567-0.697c-1.483-0.304-2.966-0.685-4.406-1.133c-1.432-0.445-2.853-0.966-4.226-1.546   c-1.368-0.579-2.721-1.231-4.021-1.937c-1.299-0.706-2.574-1.481-3.793-2.305c-1.214-0.819-2.405-1.71-3.542-2.648   c-1.131-0.933-2.229-1.932-3.267-2.969c-1.036-1.037-2.036-2.136-2.971-3.268c-0.934-1.132-1.825-2.324-2.647-3.542   c-0.827-1.223-1.602-2.498-2.305-3.792c-0.706-1.3-1.358-2.653-1.937-4.02c-0.581-1.375-1.102-2.796-1.547-4.225   c-0.448-1.442-0.829-2.925-1.133-4.408c-0.307-1.495-0.541-3.031-0.697-4.566C18.08,67.153,18,65.57,18,63.999   c0-1.57,0.08-3.153,0.237-4.706c0.156-1.536,0.392-3.072,0.698-4.567c0.303-1.481,0.684-2.964,1.133-4.406   c0.444-1.43,0.965-2.851,1.546-4.225c0.578-1.367,1.23-2.72,1.938-4.021c0.703-1.296,1.479-2.571,2.304-3.792   c0.824-1.22,1.715-2.412,2.647-3.542c0.935-1.132,1.934-2.231,2.972-3.268c1.035-1.037,2.134-2.035,3.266-2.969   c1.137-0.938,2.329-1.829,3.543-2.649c1.218-0.823,2.493-1.598,3.791-2.304c1.304-0.708,2.657-1.359,4.021-1.937   c1.378-0.583,2.8-1.103,4.226-1.546c1.439-0.448,2.922-0.83,4.405-1.133c1.506-0.308,3.043-0.542,4.568-0.697   c3.104-0.315,6.306-0.315,9.411,0c1.525,0.155,3.062,0.389,4.566,0.697c1.481,0.303,2.965,0.685,4.408,1.133   c1.423,0.442,2.844,0.962,4.224,1.546c1.361,0.575,2.714,1.227,4.021,1.937c0.97,0.529,2.185,0.167,2.712-0.803   c0.527-0.971,0.167-2.185-0.804-2.712c-1.42-0.772-2.892-1.48-4.371-2.106c-1.501-0.634-3.047-1.2-4.595-1.681   c-1.569-0.488-3.182-0.903-4.794-1.233c-1.637-0.334-3.307-0.589-4.964-0.757c-3.373-0.343-6.85-0.343-10.219,0   c-1.658,0.168-3.329,0.423-4.967,0.757c-1.614,0.331-3.227,0.746-4.792,1.233c-1.55,0.482-3.096,1.047-4.596,1.682   c-1.483,0.627-2.954,1.336-4.372,2.106c-1.411,0.767-2.798,1.61-4.121,2.504c-1.319,0.891-2.614,1.859-3.849,2.877   c-1.23,1.015-2.425,2.101-3.55,3.227c-1.126,1.126-2.212,2.32-3.227,3.55c-1.015,1.228-1.982,2.523-2.877,3.848   c-0.898,1.327-1.741,2.715-2.505,4.123c-0.77,1.415-1.478,2.885-2.106,4.372c-0.633,1.495-1.198,3.041-1.682,4.595   c-0.489,1.569-0.903,3.182-1.232,4.792c-0.333,1.625-0.589,3.295-0.759,4.965C14.087,60.575,14,62.295,14,63.999   c0,1.706,0.087,3.425,0.258,5.11c0.17,1.669,0.425,3.34,0.758,4.964c0.33,1.612,0.744,3.225,1.233,4.794   c0.483,1.554,1.049,3.1,1.682,4.595c0.629,1.486,1.337,2.957,2.105,4.371c0.764,1.407,1.606,2.794,2.505,4.123   c0.894,1.324,1.861,2.619,2.878,3.85c1.015,1.229,2.101,2.423,3.227,3.549c1.126,1.127,2.32,2.212,3.549,3.226   c1.235,1.02,2.53,1.988,3.849,2.877c1.324,0.895,2.711,1.738,4.122,2.505c1.413,0.768,2.885,1.477,4.372,2.106   c1.493,0.632,3.039,1.198,4.596,1.682c1.567,0.487,3.18,0.902,4.792,1.232c1.631,0.333,3.302,0.589,4.966,0.758   c1.688,0.171,3.406,0.258,5.109,0.258c1.703,0,3.422-0.087,5.11-0.258c1.664-0.169,3.334-0.424,4.965-0.758   c1.609-0.33,3.222-0.744,4.794-1.232c1.553-0.483,3.099-1.049,4.594-1.682c1.484-0.628,2.955-1.336,4.371-2.106   c1.406-0.763,2.793-1.605,4.123-2.504c1.326-0.896,2.621-1.864,3.848-2.877c1.228-1.012,2.422-2.098,3.551-3.227   c1.128-1.128,2.214-2.322,3.226-3.55c1.02-1.235,1.988-2.53,2.879-3.849c0.897-1.329,1.74-2.716,2.504-4.122   c0.77-1.415,1.478-2.885,2.107-4.373c0.636-1.506,1.201-3.052,1.68-4.594c0.487-1.565,0.902-3.178,1.234-4.794   c0.334-1.639,0.589-3.309,0.756-4.964c0.172-1.685,0.259-3.404,0.259-5.11c0-1.705-0.087-3.424-0.258-5.109   C113.574,57.233,113.319,55.563,112.984,53.924z"/><path d="M89.743,51.615c-1.013-0.543-2.153-0.831-3.301-0.831c-0.001,0-0.003,0-0.004,0H75.529c-1.18,0-2.139-0.959-2.139-2.139   V37.926c0-3.792-2.549-7.042-6.199-7.905c-0.251-0.059-0.475-0.101-0.691-0.113c-1.241-0.118-2.495,0.288-3.435,1.124   c-0.964,0.858-1.517,2.091-1.515,3.417l0.005,2.944c0.004,2.329-0.448,4.599-1.343,6.745c-0.006,0.016-0.013,0.032-0.02,0.049   c-0.9,2.147-2.194,4.066-3.848,5.706c-0.784,0.778-0.79,2.044-0.012,2.828c0.777,0.785,2.045,0.79,2.828,0.012   c2.042-2.024,3.638-4.397,4.743-7.053c0.007-0.017,0.014-0.035,0.021-0.052c1.086-2.625,1.634-5.396,1.63-8.241l-0.005-2.978   c0-0.193,0.095-0.318,0.174-0.389c0.08-0.071,0.219-0.151,0.407-0.128c0.021,0.002,0.042,0.004,0.063,0.006l0.077,0.017   c1.836,0.434,3.118,2.083,3.118,4.012v10.719c0,3.385,2.754,6.139,6.139,6.139h10.91c0.001,0,0.001,0,0.002,0   c0.489,0,0.978,0.123,1.456,0.38c1.004,0.539,1.627,1.572,1.627,2.694c0,1.057-0.431,2.091-1.18,2.834l-0.292,0.289   c-0.77,0.762-0.793,1.998-0.053,2.789l0.754,0.805c0.497,0.531,0.771,1.224,0.771,1.999c0,0.94-0.422,1.814-1.157,2.397   l-0.467,0.37c-0.688,0.546-0.94,1.477-0.621,2.295l0.522,1.338c0.185,0.473,0.268,0.969,0.247,1.478   c-0.045,1.103-0.576,2.116-1.457,2.78l-1.193,0.9c-0.501,0.378-0.796,0.969-0.796,1.597v0.984c0,1.394-1.15,2.528-2.563,2.528   H57.426c-1.104,0-2,0.896-2,2s0.896,2,2,2h24.613c3.615,0,6.557-2.922,6.563-6.516l0.397-0.3c1.841-1.389,2.951-3.506,3.045-5.81   c0.044-1.064-0.13-2.106-0.517-3.097l-0.007-0.017c1.282-1.312,2.003-3.07,2.003-4.977c0-1.512-0.493-2.961-1.4-4.151   c0.901-1.322,1.4-2.905,1.4-4.515C93.524,55.261,92.094,52.878,89.743,51.615z"/><path d="M34.477,54.501v27.756c0,4.331,3.523,7.855,7.854,7.855s7.854-3.524,7.854-7.855V54.501c0-4.331-3.523-7.854-7.854-7.854   S34.477,50.17,34.477,54.501z M46.186,54.501v27.756c0,2.125-1.729,3.855-3.854,3.855s-3.854-1.729-3.854-3.855V54.501   c0-2.125,1.729-3.854,3.854-3.854S46.186,52.376,46.186,54.501z"/></g><text x="0" y="143" fill="#000000" font-size="5px" font-weight="bold" font-family="'Helvetica Neue', Helvetica, Arial-Unicode, Arial, Sans-serif">Created by Symbolon</text><text x="0" y="148" fill="#000000" font-size="5px" font-weight="bold" font-family="'Helvetica Neue', Helvetica, Arial-Unicode, Arial, Sans-serif">from the Noun Project</text></svg>