<svg xmlns="http://www.w3.org/2000/svg" viewBox="0 0 64 80" x="0px" y="0px"><g><rect x="31" y="56" width="2" height="2"/><path d="M6,26h8.7l5.748,3.832A1,1,0,0,0,22,29V26h4a4,4,0,0,0,4-4V6a4,4,0,0,0-4-4H6A4,4,0,0,0,2,6V22A4,4,0,0,0,6,26ZM4,6A2,2,0,0,1,6,4H26a2,2,0,0,1,2,2V22a2,2,0,0,1-2,2H21a1,1,0,0,0-1,1v2.132l-4.445-2.964A1.006,1.006,0,0,0,15,24H6a2,2,0,0,1-2-2Z"/><path d="M9,22H21.6A2.4,2.4,0,0,0,24,19.6V14.4A2.4,2.4,0,0,0,21.6,12H20V10a4,4,0,0,0-4-4,2,2,0,0,0-2,2v2.586L12.586,12H9a1,1,0,0,0-1,1v8A1,1,0,0,0,9,22Zm6.707-10.293A1,1,0,0,0,16,11V8a2,2,0,0,1,2,2v2H17v2h4.6a.4.4,0,0,1,.4.4v5.2a.4.4,0,0,1-.4.4H14V13.414ZM10,14h2v6H10Z"/><path d="M58,10H47.9A5.009,5.009,0,0,0,43,6H32V8H43a3,3,0,0,1,2.816,2H40a3.987,3.987,0,0,0-3.444,2H32v2h4V28a4,4,0,0,0,4,4v3a1,1,0,0,0,1.555.832L46,32.868v7.718l-1.793-1.793a4.535,4.535,0,1,0-6.414,6.414l4.918,4.918A9.749,9.749,0,0,0,41.749,52H33v2h8.212a9.763,9.763,0,0,0,.965,6H21a3,3,0,0,1-3-3h8a4,4,0,0,0,4-4V45a4,4,0,0,0-4-4H22V38a1,1,0,0,0-1.555-.832L18,38.8V30H16V40.132L14.7,41H6a4,4,0,0,0-4,4v8a4,4,0,0,0,4,4H16a5.006,5.006,0,0,0,5,5H43a4.9,4.9,0,0,0,.734-.062A.972.972,0,0,0,44,62H56a1,1,0,0,0,1-1V42.04a10.948,10.948,0,0,0-2.678-7.19L52.124,32H58a4,4,0,0,0,4-4V14A4,4,0,0,0,58,10ZM6,55a2,2,0,0,1-2-2V45a2,2,0,0,1,2-2h9a1.006,1.006,0,0,0,.555-.168L20,39.868V42a1,1,0,0,0,1,1h5a2,2,0,0,1,2,2v8a2,2,0,0,1-2,2ZM52.777,36.118A9,9,0,0,1,55,42.04V60H44.506a7.768,7.768,0,0,1-.126-8.772l.45-.67a1,1,0,0,0-.123-1.265l-5.5-5.5a2.536,2.536,0,0,1,3.586-3.586l7.5,7.5,1.414-1.414L48,42.586V32h1.6ZM60,28a2,2,0,0,1-2,2H47a1.006,1.006,0,0,0-.555.168L42,33.132V31a1,1,0,0,0-1-1H40a2,2,0,0,1-2-2V14a2,2,0,0,1,2-2H58a2,2,0,0,1,2,2Z"/><path d="M53.442,15.074a4.1,4.1,0,0,0-3.393.883L49,16.819l-1.048-.862a4.1,4.1,0,0,0-3.394-.883A4.323,4.323,0,0,0,41.6,17.29,4.85,4.85,0,0,0,42.775,23.4l5.609,4.392a1,1,0,0,0,1.232,0L55.225,23.4A4.852,4.852,0,0,0,56.4,17.289,4.325,4.325,0,0,0,53.442,15.074Zm.55,6.746L49,25.729,44.008,21.82a2.868,2.868,0,0,1-.657-3.57,2.339,2.339,0,0,1,1.586-1.213A2.156,2.156,0,0,1,45.328,17a2.122,2.122,0,0,1,1.354.5l1.683,1.385a1,1,0,0,0,1.27,0L51.319,17.5a2.09,2.09,0,0,1,1.744-.465,2.341,2.341,0,0,1,1.586,1.212A2.869,2.869,0,0,1,53.992,21.82Z"/><rect x="6" y="46" width="14" height="2"/><rect x="22" y="46" width="4" height="2"/><rect x="6" y="50" width="6" height="2"/><rect x="14" y="50" width="12" height="2"/></g><text x="0" y="79" fill="#000000" font-size="5px" font-weight="bold" font-family="'Helvetica Neue', Helvetica, Arial-Unicode, Arial, Sans-serif">Created by monkik</text><text x="0" y="84" fill="#000000" font-size="5px" font-weight="bold" font-family="'Helvetica Neue', Helvetica, Arial-Unicode, Arial, Sans-serif">from the Noun Project</text></svg>